<?xml version="1.0" encoding="UTF-8" standalone="no"?>
<svg
   version="1.0"
   width="658.000000pt"
   height="576.000000pt"
   viewBox="0 0 658.000000 576.000000"
   preserveAspectRatio="xMidYMid meet"
   id="svg20"
   sodipodi:docname="Union-Logo.svg"
   inkscape:version="1.2.2 (732a01da63, 2022-12-09)"
   xmlns:inkscape="http://www.inkscape.org/namespaces/inkscape"
   xmlns:sodipodi="http://sodipodi.sourceforge.net/DTD/sodipodi-0.dtd"
   xmlns="http://www.w3.org/2000/svg"
   xmlns:svg="http://www.w3.org/2000/svg">
  <defs
     id="defs24" />
  <sodipodi:namedview
     id="namedview22"
     pagecolor="#505050"
     bordercolor="#ffffff"
     borderopacity="1"
     inkscape:showpageshadow="0"
     inkscape:pageopacity="0"
     inkscape:pagecheckerboard="1"
     inkscape:deskcolor="#505050"
     inkscape:document-units="pt"
     showgrid="false"
     inkscape:zoom="1.1419271"
     inkscape:cx="438.73204"
     inkscape:cy="384.43786"
     inkscape:window-width="1920"
     inkscape:window-height="1057"
     inkscape:window-x="1913"
     inkscape:window-y="-8"
     inkscape:window-maximized="1"
     inkscape:current-layer="svg20" />
  <g
     transform="translate(0.000000,576.000000) scale(0.100000,-0.100000)"
     fill="#000000"
     stroke="none"
     id="g18">
    <path
       d="M1555 5720 c-17 -19 -17 -21 0 -62 10 -24 24 -50 31 -58 7 -8 27 -42 45 -75 50 -92 69 -127 88 -160 40 -71 148 -260 167 -293 12 -21 33 -59 48 -87 14 -27 40 -72 58 -100 18 -27 47 -77 63 -110 23 -48 110 -203 165 -295 35 -58 130 -234 130 -240 0 -4 6 -13 14 -19 7 -6 34 -52 60 -102 26 -50 60 -111 76 -137 16 -26 38 -63 48 -82 50 -93 94 -170 159 -278 12 -21 27 -48 32 -62 6 -14 15 -32 21 -40 5 -8 33 -57 62 -108 29 -52 65 -115 80 -140 14 -26 34 -60 42 -77 39 -75 80 -142 97 -161 10 -11 19 -27 19 -35 0 -8 9 -25 20 -39 38 -48 17 -157 -42 -228 -16 -18 -68 -110 -102 -177 -23 -47 -44 -80 -117 -192 -15 -22 -30 -52 -34 -65 -4 -12 -14 -31 -23 -41 -16 -18 -32 -43 -57 -92 -17 -32 -30 -55 -107 -185 -27 -44 -48 -83 -48 -88 0 -5 -9 -17 -20 -27 -11 -10 -20 -26 -20 -35 0 -10 -7 -23 -15 -30 -8 -7 -38 -53 -66 -104 -27 -50 -74 -131 -104 -181 -30 -49 -54 -95 -55 -101 0 -6 -7 -17 -16 -24 -8 -8 -23 -30 -33 -49 -30 -59 -149 -263 -261 -446 -29 -47 -43 -72 -88 -157 -19 -35 -48 -85 -66 -113 -18 -27 -50 -79 -70 -115 -21 -36 -55 -94 -77 -130 -21 -36 -45 -78 -54 -95 -15 -31 -17 -34 -78 -129 -44 -69 -46 -106 -7 -117 43 -12 3323 -10 3358 2 18 6 35 22 42 39 7 16 18 34 26 41 7 6 20 23 27 38 8 14 23 42 34 61 11 19 36 64 55 100 19 36 49 85 65 110 17 25 43 70 59 100 16 30 52 90 81 134 29 44 53 85 53 91 0 5 16 33 36 60 19 28 49 78 66 113 17 34 34 64 38 67 5 3 15 18 23 33 8 15 30 54 49 87 19 33 68 116 108 185 40 69 83 141 95 160 33 51 73 120 90 157 8 17 19 34 24 37 5 4 33 49 63 102 65 118 92 164 143 251 22 37 47 79 55 94 8 14 27 45 43 68 15 23 41 68 58 101 16 33 34 62 39 65 8 5 68 107 98 165 6 14 22 42 35 62 92 155 117 198 117 204 0 3 9 17 20 31 23 30 27 98 6 122 -7 9 -34 56 -60 104 -26 49 -61 110 -77 135 -16 26 -34 58 -41 72 -34 68 -130 240 -138 245 -4 3 -24 38 -44 77 -59 118 -100 194 -112 209 -7 8 -25 39 -41 69 -16 30 -36 66 -45 80 -23 36 -75 130 -91 165 -8 17 -21 36 -30 44 -10 7 -17 21 -17 30 0 9 -4 21 -9 27 -5 5 -26 41 -47 79 -72 135 -92 172 -126 230 -18 31 -46 80 -61 109 -16 28 -46 81 -68 117 -21 36 -39 69 -39 74 0 5 -6 16 -14 24 -8 9 -32 50 -54 91 -21 41 -54 101 -73 133 -47 81 -68 119 -118 212 -41 76 -69 123 -119 201 -12 19 -22 41 -22 49 0 8 -4 17 -10 20 -5 3 -20 27 -33 53 -59 114 -79 148 -100 159 -17 10 -395 12 -1693 13 -1658 0 -1671 0 -1689 -20z"
       id="path14" />
    <path
       d="M1193 4963 c-7 -2 -13 -12 -13 -21 0 -9 -10 -32 -23 -51 -34 -53 -42 -67 -99 -170 -29 -52 -65 -115 -80 -140 -15 -25 -35 -59 -43 -76 -9 -16 -27 -48 -40 -70 -13 -22 -31 -53 -39 -70 -17 -34 -70 -128 -137 -241 -26 -44 -63 -110 -83 -149 -21 -38 -55 -99 -77 -135 -22 -36 -47 -78 -55 -95 -8 -16 -26 -48 -39 -70 -13 -22 -29 -50 -34 -63 -6 -13 -34 -62 -62 -110 -28 -47 -55 -95 -60 -107 -5 -11 -21 -41 -36 -67 -69 -117 -163 -288 -163 -296 0 -5 -7 -15 -16 -23 -9 -7 -28 -38 -43 -68 -24 -47 -27 -61 -19 -91 6 -19 15 -42 21 -50 13 -17 34 -52 54 -91 7 -15 20 -32 28 -39 8 -7 15 -16 15 -21 0 -10 116 -216 135 -239 7 -8 31 -51 55 -95 23 -44 48 -87 55 -95 7 -8 20 -31 29 -50 9 -19 36 -66 61 -105 24 -38 52 -83 60 -100 9 -16 24 -43 33 -60 10 -16 33 -57 51 -90 19 -33 40 -67 47 -75 8 -9 30 -47 50 -85 20 -39 49 -87 65 -107 16 -20 29 -44 29 -52 0 -8 5 -18 11 -22 6 -3 17 -21 25 -38 17 -35 56 -105 89 -156 12 -19 41 -69 65 -110 24 -41 53 -91 64 -110 12 -19 27 -44 34 -55 6 -11 26 -45 44 -77 18 -31 41 -62 52 -68 17 -11 23 -9 43 14 l23 27 -2 2018 c-3 2140 -1 2052 -47 2050 -9 0 -22 -3 -28 -6z"
       id="path16" />
  </g>
  <path
     style="fill:#ff0000;stroke-width:0.875713"
     d="m 208.01826,762.55787 c -3.35141,-0.18608 -6.64336,-0.7947 -7.31544,-1.35248 -2.33133,-1.93484 -0.56485,-7.32051 5.75115,-17.53424 3.34124,-5.40317 7.37888,-12.18837 8.97254,-15.07822 4.40656,-7.99061 19.70202,-33.93308 25.81562,-43.78563 2.98864,-4.81642 7.33385,-12.30377 9.65604,-16.63854 2.32218,-4.33478 10.21136,-17.93022 17.53151,-30.21209 7.32014,-12.28187 17.14187,-29.02987 21.82605,-37.21779 4.68419,-8.18791 9.39202,-16.06932 10.46185,-17.51425 1.06983,-1.44493 3.17125,-4.99156 4.66983,-7.88141 3.43163,-6.61755 17.07323,-30.20448 22.69279,-39.23684 2.33901,-3.7595 5.43497,-8.91263 6.87989,-11.45138 1.44493,-2.53876 3.41528,-5.90076 4.37856,-7.47109 3.17839,-5.18139 14.52869,-24.8465 20.76681,-35.97981 3.37337,-6.02052 6.85933,-11.73946 7.74656,-12.70874 0.88725,-0.96928 2.47664,-3.72778 3.532,-6.12999 1.05535,-2.40221 5.00973,-9.18816 8.78752,-15.07989 3.77778,-5.89174 9.88979,-16.33461 13.58224,-23.20639 3.69245,-6.87178 9.01957,-15.98563 11.83805,-20.25301 2.81849,-4.26737 5.7567,-9.93351 6.52938,-12.59142 1.85987,-6.39775 1.35331,-14.72633 -1.10809,-18.21832 -1.00404,-1.42444 -2.11716,-3.52803 -2.4736,-4.67464 -0.35643,-1.14662 -2.54006,-4.89029 -4.85248,-8.31927 -2.31244,-3.42899 -6.66052,-10.76633 -9.66241,-16.30521 -3.00189,-5.53888 -9.41503,-16.96693 -14.25143,-25.39567 -4.8364,-8.42873 -11.20438,-19.85678 -14.15106,-25.39567 -2.94669,-5.53888 -8.91811,-16.17879 -13.26983,-23.64424 -4.35172,-7.46545 -12.60668,-21.96016 -18.34435,-32.21045 -5.73767,-10.25031 -12.26303,-21.67836 -14.50079,-25.39567 -2.23777,-3.71732 -6.7168,-11.68464 -9.95339,-17.70517 -3.2366,-6.02052 -10.3207,-18.63078 -15.74244,-28.0228 -5.42174,-9.39202 -12.71198,-22.39635 -16.20054,-28.89852 -3.48856,-6.50217 -8.8024,-15.95986 -11.80853,-21.0171 -3.00613,-5.05724 -7.75323,-13.33273 -10.54911,-18.389969 -2.79588,-5.05724 -9.69035,-17.273432 -15.32104,-27.147092 -5.63069,-9.87366 -13.70629,-24.257241 -17.94578,-31.963512 -4.23948,-7.706271 -8.75714,-15.587685 -10.03923,-17.514253 -1.28209,-1.926568 -3.22538,-5.625293 -4.31841,-8.219389 l -1.98734,-4.7165388 1.84957,-1.8495724 c 1.66711,-1.6670996 3.20807,-1.9069008 15.61946,-2.4306599 17.7128,-0.7474782 371.1008,-0.738746 407.11439,0.01006 27.08355,0.5631297 27.3137,0.5836296 29.48705,2.6264514 1.20475,1.1323905 5.00089,7.3083767 8.43587,13.7244157 3.43499,6.416037 6.8153,12.138472 7.51181,12.716521 0.6965,0.578049 1.26637,1.741766 1.26637,2.586037 0,0.844272 3.07574,6.608562 6.83498,12.809535 3.75924,6.200973 9.73357,16.594451 13.27629,23.096618 3.54272,6.502166 9.46656,17.142075 13.16407,23.644241 3.69752,6.502167 8.73544,15.565797 11.19537,20.141387 2.45993,4.5756 5.47951,9.67657 6.71018,11.33547 1.23067,1.65891 2.23759,3.36827 2.23759,3.79857 0,0.43031 5.66128,10.6981 12.58062,22.81733 6.91935,12.11922 16.43723,29.12822 21.15084,37.79778 4.71361,8.66955 9.4952,17.23276 10.62576,19.02935 1.13055,1.79658 2.05555,3.71287 2.05555,4.25842 0,0.54555 1.42398,3.21335 3.16442,5.92846 1.74043,2.71511 8.17153,13.80315 14.29131,24.6401 6.11979,10.83694 12.33406,21.67389 13.80949,24.0821 1.47542,2.40821 6.20854,11.07776 10.51804,19.26567 4.3095,8.18792 9.42201,17.44858 11.36115,20.57925 1.93915,3.13067 6.40226,11.01209 9.91803,17.51425 3.51577,6.50217 9.22298,16.74801 12.68269,22.76853 17.95742,31.24914 18.83183,32.96505 18.83183,36.95466 0,2.10843 -0.71725,5.19757 -1.5939,6.86474 -3.53536,6.72343 -7.7245,14.13549 -14.58149,25.79976 -3.96395,6.74299 -9.49705,16.39772 -12.29579,21.45496 -2.79874,5.05724 -6.93883,11.95348 -9.2002,15.32497 -2.26137,3.3715 -6.47289,10.26773 -9.35893,15.32497 -2.88605,5.05724 -9.5813,16.48529 -14.87832,25.39567 -5.29704,8.91038 -13.27979,22.70285 -17.73946,30.64994 -4.45967,7.9471 -9.42507,16.29283 -11.03425,18.54609 -1.60916,2.25325 -3.98142,6.1801 -5.27169,8.72632 -1.29027,2.54621 -6.28728,11.14552 -11.10446,19.10956 -4.81718,7.96403 -14.68715,24.7259 -21.93327,37.24859 -7.24612,12.52269 -14.04921,23.95074 -15.11798,25.39567 -1.06877,1.44492 -3.33333,5.38563 -5.03235,8.75713 -1.69903,3.37149 -5.48569,9.84556 -8.4148,14.38682 -2.92912,4.54127 -5.32566,8.56434 -5.32566,8.94016 0,0.37583 -3.68461,6.70906 -8.18804,14.07384 -13.21957,21.61897 -21.68698,36.03178 -30.76091,52.35972 -4.6841,8.42874 -9.41691,16.31015 -10.51734,17.51426 -1.10045,1.2041 -2.6451,3.46629 -3.43258,5.02709 -0.78747,1.5608 -2.48981,3.53116 -3.78297,4.37857 -2.22732,1.45957 -13.81937,1.54471 -220.00458,1.61599 -119.70935,0.0414 -220.39544,-0.077 -223.74686,-0.2631 z"
     id="path268"
     transform="scale(0.75)" />
  <path
     style="fill:#ff0000;stroke-width:0.875713"
     d="m 158.00199,649.55986 c -1.73567,-2.2878 -5.80796,-8.69144 -9.04951,-14.23033 -3.24157,-5.53888 -11.66525,-19.80748 -18.7193,-31.70799 -7.05404,-11.90051 -13.98957,-23.94325 -15.41228,-26.76163 -1.42272,-2.81839 -3.21003,-5.6416 -3.97179,-6.27381 -0.76177,-0.6322 -1.38503,-1.76403 -1.38503,-2.51516 0,-0.75113 -2.09567,-4.54506 -4.65705,-8.43097 -2.56138,-3.8859 -6.369282,-10.21785 -8.462008,-14.07098 -2.092726,-3.85314 -5.274934,-9.17309 -7.071574,-11.82213 -1.796638,-2.64903 -6.790617,-11.12155 -11.09773,-18.82782 -4.307114,-7.70627 -10.992332,-19.33135 -14.85604,-25.83352 -3.863709,-6.50217 -7.843723,-13.20137 -8.844475,-14.88712 -1.000753,-1.68574 -4.474363,-7.79384 -7.719135,-13.57354 -3.244771,-5.77971 -6.96149,-12.08484 -8.259375,-14.01141 -3.420873,-5.0779 -17.479589,-29.96662 -17.479589,-30.94482 0,-0.45611 -1.20552,-2.34967 -2.678934,-4.20791 -1.473414,-1.85824 -5.071336,-7.44339 -7.995383,-12.41145 -6.7849586,-11.52786 -7.2121006,-14.35887 -3.3359412,-22.10988 1.550497,-3.10048 3.7479332,-6.87477 4.8831912,-8.38732 1.135258,-1.51256 3.686525,-5.84734 5.669483,-9.63284 3.285994,-6.27303 8.86561,-16.29579 32.838122,-58.98765 4.462484,-7.94709 10.851577,-19.37514 14.197983,-25.39566 7.172435,-12.90393 20.926288,-37.14057 35.283537,-62.1756 5.662408,-9.87366 12.443198,-21.89282 15.068418,-26.70924 5.83481,-10.70495 35.06136,-61.91978 39.4794,-69.1813 1.75824,-2.88985 3.19781,-5.89564 3.19905,-6.67954 0.003,-1.78873 1.53144,-3.08222 4.53269,-3.83548 1.83998,-0.46181 2.54328,-0.18916 3.33683,1.29362 2.12194,3.96487 2.57121,44.79428 3.17567,288.60199 l 0.62317,251.35719 -2.85878,3.25597 c -1.57233,1.79079 -3.40307,3.25597 -4.06832,3.25597 -0.66524,0 -2.62963,-1.87184 -4.3653,-4.15964 z"
     id="path270"
     transform="scale(0.75)" />
</svg>
